<svg xmlns="http://www.w3.org/2000/svg" viewBox="0 0 100 100" enable-background="new 0 0 100 100"><circle fill="#4d6323" cx="50" cy="50" r="50"/><g fill="#2f3d1c"><path opacity=".5" d="m69.918 48.997l4.071-4.072-2.789-1.735-1.282 1.19v-2.33l-7.04 7.05 5.456.21.434.84.796-.79.358.01z"/><path opacity=".5" d="m70.73 75.7l-6.954-6.953 6.154-5.499 4.059-4.06-.54-.54 6.952-6.952-.503-2.071h-7.736l-9.835-1.12-21.366 21.367-.648-.557 42.05-42.05-1.527-1.222h-50l-1.321 4.125.252-5.812-11.88 11.88-1.712-2.787-16.16 16.16c-.1 13.03 4.849 26.08 14.848 35.957 8.865 8.757 20.18 13.509 31.704 14.298l24.16-24.17"/></g><g fill="#fff"><path d="m82.37 24.07h-51.699c-.801 0-1.478.593-1.582 1.389l-4 30.49-5.905-22.282c-.227-.852-1.1-1.357-1.952-1.133-.852.225-1.359 1.099-1.134 1.951l7.979 30.1c.188.704.823 1.187 1.542 1.187.034 0 .068 0 .104-.002.761-.05 1.38-.63 1.479-1.386l4.871-37.12h50.3c.881 0 1.596-.714 1.596-1.595-.002-.88-.717-1.595-1.598-1.595"/><path d="m53.44 44.676h-6.644v-6.645c0-.881-.715-1.596-1.596-1.596s-1.595.715-1.595 1.597v6.645h-6.645c-.881 0-1.596.714-1.596 1.596 0 .881.715 1.595 1.596 1.595h6.645v6.643c0 .882.715 1.596 1.596 1.596s1.596-.714 1.596-1.596v-6.643h6.644c.881 0 1.595-.714 1.595-1.595-.002-.882-.716-1.597-1.596-1.597"/><path d="m80.4 48.51h-16.478c-.881 0-1.596.714-1.596 1.596 0 .881.715 1.595 1.596 1.595h16.479c.881 0 1.596-.714 1.596-1.595-.001-.882-.716-1.596-1.597-1.596"/><path d="m47.844 69.32h-16.479c-.881 0-1.596.715-1.596 1.596s.715 1.596 1.596 1.596h16.479c.881 0 1.596-.715 1.596-1.596s-.715-1.596-1.596-1.596"/><circle cx="72.16" cy="43.19" r="2.526"/><circle cx="72.16" cy="57.46" r="2.526"/><path d="m70.73 61.795c-.621-.623-1.633-.623-2.256 0l-4.699 4.699-4.697-4.699c-.624-.623-1.634-.623-2.257 0-.624.623-.624 1.633 0 2.257l4.698 4.698-4.697 4.697c-.623.623-.623 1.634 0 2.256.311.312.719.469 1.128.469.408 0 .816-.156 1.128-.469l4.697-4.697 4.697 4.697c.312.312.721.469 1.129.469s.816-.156 1.128-.469c.624-.622.624-1.633 0-2.256l-4.697-4.697 4.698-4.698c.623-.624.623-1.634 0-2.257"/></g></svg>